<?xml version="1.0" encoding="UTF-8"?>
<svg xmlns="http://www.w3.org/2000/svg" viewBox="0 0 1 1" width="400" height="400">
  <path fill="#fff" d="M 0.5 0.5 C 0.5 0.38 0.4 0.22 0.26 0.22 C 0.16 0.22 0.1 0.3 0.1 0.4 C 0.1 0.47 0.2 0.5 0.5 0.5 Z"/>
  <path fill="#fff" d="M 0.5 0.5 C 0.5 0.38 0.6 0.22 0.74 0.22 C 0.84 0.22 0.9 0.3 0.9 0.4 C 0.9 0.47 0.8 0.5 0.5 0.5 Z"/>
  <path fill="#fff" d="M 0.5 0.5 C 0.5 0.62 0.4 0.78 0.26 0.78 C 0.16 0.78 0.1 0.7 0.1 0.6 C 0.1 0.53 0.2 0.5 0.5 0.5 Z"/>
  <path fill="#fff" d="M 0.5 0.5 C 0.5 0.62 0.6 0.78 0.74 0.78 C 0.84 0.78 0.9 0.7 0.9 0.6 C 0.9 0.53 0.8 0.5 0.5 0.5 Z"/>
</svg>
